<?xml version="1.0" encoding="UTF-8"?>
<svg id="Layer_1" xmlns="http://www.w3.org/2000/svg" version="1.1" viewBox="0 0 742.07 799.07">
  <!-- Generator: Adobe Illustrator 30.0.0, SVG Export Plug-In . SVG Version: 2.1.1 Build 123)  -->
  <defs>
    <style>
      .st0 {
        fill: #fff;
      }
    </style>
  </defs>
  <path class="st0" d="M541.1,286.36l-153.31-89.02c-4.97-2.84-10.39-4.31-15.9-4.31s-10.92,1.47-15.81,4.31l-153.36,89.11c-9.72,5.68-15.81,16.16-15.81,27.48v178.22c0,11.32,6.08,21.93,15.81,27.57l27.57,16.03,40.23,23.35,9.01-24.82,82.85-228.48c.75-2.22-.84-4.62-3.33-4.62h-38.85c-2.89,0-5.55,1.82-6.48,4.53l-74.37,205.21-23.62-13.72c-1.78-1.02-2.89-2.93-2.89-4.97v-178.31c0-2.04,1.11-3.95,2.89-4.97l153.36-89.11c.84-.53,1.86-.75,2.84-.75s1.95.27,2.89.75l153.4,89.11c1.78,1.02,2.89,2.93,2.89,4.97v178.22c0,2.04-1.11,3.95-2.89,4.97l-23.35,13.59-61.45-169.56c-1.11-3.11-5.37-3.11-6.48,0l-20.25,55.77c-.58,1.55-.58,3.29,0,4.79l47.95,132.36-15.94,9.28-39.25-108.38c-1.11-3.11-5.37-3.11-6.48,0l-20.25,55.77c-.58,1.55-.58,3.29,0,4.79l25.8,71.17-33.66,19.58c-.84.53-1.86.76-2.89.76s-1.95-.27-2.89-.76l-33.26-19.36,94.62-261.07c.84-2.31-.84-4.75-3.24-4.75h-38.85c-2.89,0-5.55,1.82-6.48,4.53l-86.27,237.89-9.01,24.82,40.23,23.36,29.35,17.05c4.88,2.84,10.35,4.31,15.81,4.31s10.92-1.46,15.81-4.31l153.4-89.11c9.81-5.68,15.81-16.16,15.81-27.57v-178.13c0-11.32-6.08-21.93-15.81-27.57h-.09Z"/>
</svg>